<svg version="1" xmlns="http://www.w3.org/2000/svg" width="933.333" height="933.333" viewBox="0 0 700.000000 700.000000"><path d="M197.8 118.8c-83.4 41.7-152.2 76.3-153 76.9-1.1.9-1.3 27.1-1.2 154 0 84.1.4 153.4.7 154 .4.6 69.3 35.4 153.2 77.3L350 657.3 502.5 581c83.9-41.9 152.9-77 153.3-77.9.8-1.6.9-306.8.1-307.4C655 194.9 350.5 43 350 43c-.3 0-68.8 34.1-152.2 75.8zm440.8 231.3l.1 143.4-144.3 72.1-144.3 72-144.3-72.1-144.3-72.1V206.6l144.2-72.1L350 62.4l144.2 72.1 144.3 72.1.1 143.5z"/><path d="M240.5 197.6c-19.2 9.7-35.2 17.8-35.4 18-.2.2-.4 60.7-.4 134.6v134.2l35.4 17.7c19.4 9.8 35.6 17.6 35.9 17.4.3-.2.5-31.1.5-68.7v-68.3l7.9-.5 7.8-.5 29 14.5 28.9 14.4 28.7-14.4c28.4-14.2 28.8-14.4 35.7-14.5 3.9-.1 7.5 0 8 .2.7.2 1 24 1 68.9 0 37.7.2 68.7.5 68.9.5.3 69.8-34 70.9-35.1.5-.5.5-268.4 0-268.9S424.3 180 423.8 180c-.2 0-.3 31.1-.3 69.2v69.2h-16L378.7 304l-28.8-14.4-28.7 14.4-28.7 14.4h-8l-8 .1v-69.3c0-38-.2-69.2-.5-69.2-.3.1-16.2 8-35.5 17.6zM266 263v66h12c6.6 0 12.1.3 12.1.7.1.5.2 9.9.3 21l.1 20.3-2.5.1c-1.4 0-6.9 0-12.2-.1l-9.8-.1v66c0 36.4-.2 66.1-.4 66.1s-11.6-5.6-25.4-12.5l-25-12.6V350.6c0-70 .3-127.8.7-128.3.6-.9 47.8-25 49.4-25.2.4-.1.7 29.6.7 65.9zm193.9-53.5l24.9 12.6v255.8l-25.1 12.5c-13.7 7-25.2 12.6-25.3 12.6-.2 0-.4-29.7-.4-66v-65.9l-12.2-.3-12.3-.3v-41l12.3-.3 12.2-.3V263c0-36.3.2-66 .5-66 .2 0 11.7 5.6 25.4 12.5zM374 317.3l21.5 10.8v21.4c0 12.9-.4 21.8-1 22.4-.6.5-10.8 5.8-22.7 11.8l-21.7 10.9-22.8-11.4-22.8-11.4v-43.7l22.5-11.3c12.4-6.3 23.2-11.1 24-10.8.8.3 11.2 5.4 23 11.3z"/><path d="M334.5 327.4l-14 7.3V365.4l14.7 7.4 14.7 7.3 14.8-7.3 14.8-7.4v-30.8l-14.5-7.3c-8-4-14.9-7.2-15.5-7.1-.5 0-7.3 3.3-15 7.2zm25 5l9 4.3-9.2 4.6-9.2 4.7-9.1-4.4c-6.1-3-8.6-4.7-7.8-5.3 2.8-1.8 15.4-8.1 16.3-8.2.6 0 5.1 1.9 10 4.3zm-22 15.4l9 4.7v8.7c0 4.9-.3 8.8-.7 8.8-.4 0-4.7-2-9.7-4.5l-8.9-4.6-.1-8.9c-.1-5 .2-9 .6-9 .4.1 4.9 2.2 9.8 4.8zm35.3 4.2l-.2 9-8.8 4.5c-4.8 2.5-9.1 4.5-9.6 4.5-.4 0-.7-3.9-.7-8.8v-8.7l9-4.7c4.9-2.6 9.3-4.7 9.7-4.7.4-.1.6 3.9.6 8.9z"/></svg>